<svg xmlns="http://www.w3.org/2000/svg" width="480" height="396" viewBox="0 0 480 396" role="img" aria-labelledby="t d">
<title id="t">Johannes Grof — software that does one thing, properly</title>
<desc id="d">Johannes Grof, developer in Austria. Software that does one thing, properly. Native Mac and iPhone apps, developer tools and the backends that keep them running. Six marks for the kinds of things he builds, and a live strip: 33 public repositories, 49 releases shipped, latest BriskEdit v0.6.0.</desc>
<style>
text { font-family: -apple-system, BlinkMacSystemFont, "Segoe UI", Helvetica, Arial, sans-serif; fill: #f1eee5; }
.mono { font-family: "SFMono-Regular", ui-monospace, Consolas, "Liberation Mono", monospace; }
.muted { fill: #a49c8b; }
.accent { fill: #ff997c; }
.rise { animation: rise .7s cubic-bezier(.2,.7,.3,1) both; }
/* Position only: a renderer that ignores CSS animation still shows every element. */
@keyframes rise { from { transform: translateY(10px); } to { transform: translateY(0); } }
@media (prefers-reduced-motion: reduce) {
  * { animation: none !important; }
}
</style>
<rect x=".5" y=".5" width="479" height="395" rx="18" fill="#14130f" stroke="#332f27"/>
<g class="rise"><text x="28" y="62" class="mono accent" font-size="12" letter-spacing="2.2">MADE IN AUSTRIA · HTL KAINDORF</text></g><g class="rise" style="animation-delay:0.06s"><text x="26" y="106" font-size="32" font-weight="700" letter-spacing="-1.5">Software that does</text></g><g class="rise" style="animation-delay:0.13s"><text x="26" y="144" font-size="32" font-weight="700" letter-spacing="-1.5">one thing, properly.</text></g><g class="rise" style="animation-delay:.2s"><text x="28" y="180" class="muted" font-size="15">Native Mac and iPhone apps, developer tools,</text><text x="28" y="202" class="muted" font-size="15">and the backends that keep them running.</text></g><g class="rise" style="animation-delay:0.24s"><rect x="28" y="232" width="58" height="58" rx="16" fill="#242118" stroke="#332f27"/><path d="M48.0 252.0h5m-2.5 0v18m-2.5 0h5" stroke="#a49c8b" stroke-width="2.4" stroke-linecap="round" fill="none"/><rect x="59.0" y="258.0" width="8" height="6" rx="1.5" fill="#a49c8b"/></g><g class="rise" style="animation-delay:0.30s"><rect x="98" y="232" width="58" height="58" rx="16" fill="#ff997c" stroke="#ff997c"/><path d="M117.0 267.0h6a5 5 0 0 0 5-5v-4a5 5 0 0 1 5-5h4" stroke="#14130f" stroke-width="2.4" stroke-linecap="round" fill="none"/><circle cx="116.0" cy="267.0" r="3" fill="#14130f"/><circle cx="138.0" cy="253.0" r="3" fill="#14130f"/></g><g class="rise" style="animation-delay:0.36s"><rect x="168" y="232" width="58" height="58" rx="16" fill="#242118" stroke="#332f27"/><path d="M187.0 254.0l6 6-6 6" stroke="#a49c8b" stroke-width="2.4" stroke-linecap="round" fill="none"/><path d="M198.0 268.0h9" stroke="#a49c8b" stroke-width="2.4" stroke-linecap="round" fill="none"/></g><g class="rise" style="animation-delay:0.42s"><rect x="238" y="232" width="58" height="58" rx="16" fill="#242118" stroke="#332f27"/><path d="M251.0 257.0v8" stroke="#a49c8b" stroke-width="2.6" stroke-linecap="round"/><path d="M259.0 253.0v16" stroke="#a49c8b" stroke-width="2.6" stroke-linecap="round"/><path d="M267.0 250.0v22" stroke="#a49c8b" stroke-width="2.6" stroke-linecap="round"/><path d="M275.0 254.0v14" stroke="#a49c8b" stroke-width="2.6" stroke-linecap="round"/><path d="M283.0 256.5v9" stroke="#a49c8b" stroke-width="2.6" stroke-linecap="round"/></g><g class="rise" style="animation-delay:0.48s"><rect x="308" y="232" width="58" height="58" rx="16" fill="#242118" stroke="#332f27"/><path d="M324.0 250.0H328.0a1 1 0 0 1 1 1v4a1 1 0 0 0 1 1h14a1 1 0 0 0 1-1v-4a1 1 0 0 1 1-1H350.0a3 3 0 0 1 3 3V269.0a3 3 0 0 1-3 3H324.0a3 3 0 0 1-3-3V253.0a3 3 0 0 1 3-3z" stroke="#a49c8b" stroke-width="2.4" stroke-linecap="round" fill="none"/></g><g class="rise" style="animation-delay:0.54s"><rect x="378" y="232" width="58" height="58" rx="16" fill="#242118" stroke="#332f27"/><path d="M404.0 270.0a4 4 0 0 1 6 0" stroke="#a49c8b" stroke-width="2.4" stroke-linecap="round" fill="none"/><path d="M398.0 263.0a12 12 0 0 1 18 0" stroke="#a49c8b" stroke-width="2.4" stroke-linecap="round" fill="none"/><path d="M392.0 256.0a20 20 0 0 1 30 0" stroke="#a49c8b" stroke-width="2.4" stroke-linecap="round" fill="none"/></g><path d="M28 326H452" stroke="#2a2720"/><g class="rise" style="animation-delay:0.44s"><text x="28" y="352" font-size="17" font-weight="650">33</text><text x="28" y="369" class="mono muted" font-size="10" letter-spacing="1.4">PUBLIC REPOS</text></g><g class="rise" style="animation-delay:0.50s"><text x="169" y="352" font-size="17" font-weight="650">49</text><text x="169" y="369" class="mono muted" font-size="10" letter-spacing="1.4">RELEASES SHIPPED</text></g><g class="rise" style="animation-delay:0.56s"><text x="311" y="352" font-size="17" font-weight="650">BriskEdit</text><text x="311" y="369" class="mono muted" font-size="10" letter-spacing="1.4">LATEST · v0.6.0</text></g></svg>
